<?xml version="1.0" encoding="UTF-8"?>
<svg width="277.58" height="177.05" version="1.1" xmlns="http://www.w3.org/2000/svg">
 <path d="m148 51.065-11.001 14.646h9.426l21.973-28.84-63.251 18.525 4.727 6.918zm-62.607 43.374-37.433-13.331 38.006-11.629 0.996-35.082 0.161-6.323-20.108-26.074-1.833 65.475-63.181 19.288 62.261 22.196-1.144 66.09 36.873-48.404-0.554-3.09-1.248-6.886-13.49 17.493zm92.548-12.077v0.815h3.942l-0.354-13.882h-59.091c-12.565 0.124-19.484 5.351-19.484 14.866 0 10.048 8.334 14.368 15.671 18.221 6.457 3.352 12.064 6.26 12.064 12.221 0 5.851-4.746 8.963-11.105 8.963-8.328 0-14.135-1.503-16.309-9.109l0.033 0.177c0-0.1-0.033-0.177-0.033-0.177l-1.228 0.027 2.257 12.16 1.949 0.539c2.701 0.751 7.672 2.167 13.221 2.167 14.09 0 22.185-6.368 22.185-17.518 0-10.37-8.513-14.728-16.005-18.575-6.315-3.246-11.729-6.042-11.729-11.588 0-5.95 4.919-6.863 7.877-6.863 1.048 0 2.096 0 3.119-0.033h29.233v51.986h10.688v-51.986h4.855c6.199 0 8.244 1.932 8.244 7.589m62.512 17.272c-0.322 0-1.447 0-2.039-0.146v-25.899c0.965-0.12 2.489-0.241 3.512-0.241 9.259 0 13.799 4.241 13.799 12.988 0 9.086-4.27 12.798-15.272 13.298m-52.609 4.692c0.656-1.75 6.65-18.167 7.833-21.348 1.228 3.143 7.633 19.551 8.34 21.348zm85.591 20.828c-0.63-0.201-1.247-0.417-1.865-0.698-0.559-0.222-1.093-0.574-1.653-0.947-0.553-0.378-1.074-0.847-1.633-1.39-1.009-1.058-2.129-2.461-3.338-4.273-1.247-1.78-2.526-3.849-3.999-6.211-1.473-2.333-3.042-4.938-4.726-7.732-0.566-0.987-0.952-1.631-1.261-2.148 2.443-0.981 4.971-2.478 7.479-4.716 2.578-2.311 5.665-6.83 5.665-11.578 0-4.697-1.949-8.636-5.665-11.385-4.277-3.209-10.81-4.805-19.343-4.805-1.846 0-6.199 0-10.945 0.191-0.032 0-7.414 0.381-7.414 0.381-2.007 0.122-3.467 0.229-4.502 0.229h-0.765v4.003h0.765c6.881 0 7.562 1.108 7.562 6.421v35.791c0 2.863-0.212 4.741-1.247 5.734-0.888 0.838-2.534 1.22-5.331 1.182l-19.517-53.785h-17.035v3.321l1.608 0.24c3.164 0.403 4.817 0.755 4.817 3.02-0.026 0.407-0.817 2.963-1.377 4.669l-17.027 46.585h6.874s5.909-16.432 6.263-17.382h20.186c0.36 0.95 6.276 17.382 6.276 17.382h10.379c3.35-0.071 9.234-0.682 12.809-4.174 1.955-1.871 2.939-4.342 2.939-7.321v-12.225c2.611 0.042 5.164 0.128 7.697 0 0.56 0.952 1.049 1.828 1.891 3.386 1.492 2.645 2.907 5.13 4.244 7.466 1.376 2.334 2.675 4.411 3.936 6.262 1.26 1.821 2.559 3.234 3.877 4.229 0.579 0.468 1.19 0.854 1.859 1.145 0.598 0.31 1.286 0.55 2.07 0.736 0.772 0.193 1.64 0.328 2.624 0.386 0.958 0.074 2.109 0.11 3.389 0.11h5.363l0.219-1.523c-0.791-0.208-1.479-0.384-2.148-0.576"/>
</svg>
